<svg xmlns="http://www.w3.org/2000/svg" width="314.965" height="34" viewBox="0 0 314.965 34"><g transform="translate(-496 -692)"><path d="M2.531-19.274H8.266A11.631,11.631,0,0,1,13.9-18.193a3.933,3.933,0,0,1,1.9,3.731,4.938,4.938,0,0,1-.389,2A3.689,3.689,0,0,1,14.278-11a4.123,4.123,0,0,1-1.819.771v.132a6.144,6.144,0,0,1,2,.7A3.577,3.577,0,0,1,15.84-7.963a5.071,5.071,0,0,1,.508,2.426,5.244,5.244,0,0,1-.837,3.006A5.208,5.208,0,0,1,13.124-.646,9.5,9.5,0,0,1,9.453,0H2.531ZM5.7-11.325H8.728a4.742,4.742,0,0,0,2.979-.7,2.52,2.52,0,0,0,.831-2.043,2.146,2.146,0,0,0-.982-1.978,6.134,6.134,0,0,0-3.118-.606H5.7Zm0,2.558V-2.65H9.031a4.466,4.466,0,0,0,3.111-.857,3.059,3.059,0,0,0,.9-2.32,2.929,2.929,0,0,0-.4-1.556A2.59,2.59,0,0,0,11.325-8.4a6.776,6.776,0,0,0-2.452-.363ZM21.949,0V-19.274h3.164V-2.689H33.3V0ZM55.355-9.664a13.782,13.782,0,0,1-.56,4.054,8.686,8.686,0,0,1-1.681,3.138A7.423,7.423,0,0,1,50.305-.448,10.121,10.121,0,0,1,46.35.264a10.283,10.283,0,0,1-4-.712,7.324,7.324,0,0,1-2.808-2.03,8.723,8.723,0,0,1-1.668-3.151A14,14,0,0,1,37.32-9.69a12.77,12.77,0,0,1,.982-5.2,7.508,7.508,0,0,1,2.993-3.454,9.579,9.579,0,0,1,5.082-1.233,9.376,9.376,0,0,1,5,1.226A7.583,7.583,0,0,1,54.359-14.9,12.729,12.729,0,0,1,55.355-9.664Zm-14.713,0a11.048,11.048,0,0,0,.606,3.856,5.132,5.132,0,0,0,1.865,2.5,5.541,5.541,0,0,0,3.237.877A5.535,5.535,0,0,0,49.594-3.3a5.074,5.074,0,0,0,1.846-2.5,11.272,11.272,0,0,0,.593-3.856,9.089,9.089,0,0,0-1.351-5.306,4.9,4.9,0,0,0-4.3-1.918,5.636,5.636,0,0,0-3.25.87,5.068,5.068,0,0,0-1.879,2.485A11.023,11.023,0,0,0,40.642-9.664Zm28.251-.8h7.2V-.791a21.539,21.539,0,0,1-3.138.778,21.736,21.736,0,0,1-3.639.277A9.869,9.869,0,0,1,64.338-.9a7.5,7.5,0,0,1-3.092-3.388A12.412,12.412,0,0,1,60.192-9.65a11.07,11.07,0,0,1,1.173-5.24,8.21,8.21,0,0,1,3.415-3.441,11.222,11.222,0,0,1,5.432-1.219,14.7,14.7,0,0,1,3.039.31,13.645,13.645,0,0,1,2.7.85l-1.107,2.61a12.49,12.49,0,0,0-2.188-.778,9.935,9.935,0,0,0-2.518-.316,6.811,6.811,0,0,0-3.566.9,5.932,5.932,0,0,0-2.3,2.525,8.586,8.586,0,0,0-.8,3.843,10.144,10.144,0,0,0,.646,3.771,5.257,5.257,0,0,0,2.024,2.525,6.4,6.4,0,0,0,3.566.9,12.369,12.369,0,0,0,1.859-.119q.765-.119,1.411-.264v-4.97H68.893Zm21.211,0h7.2V-.791a21.539,21.539,0,0,1-3.138.778,21.736,21.736,0,0,1-3.639.277A9.869,9.869,0,0,1,85.549-.9a7.5,7.5,0,0,1-3.092-3.388A12.412,12.412,0,0,1,81.4-9.65a11.07,11.07,0,0,1,1.173-5.24,8.21,8.21,0,0,1,3.415-3.441,11.222,11.222,0,0,1,5.432-1.219,14.7,14.7,0,0,1,3.039.31,13.645,13.645,0,0,1,2.7.85l-1.107,2.61a12.49,12.49,0,0,0-2.188-.778,9.935,9.935,0,0,0-2.518-.316,6.811,6.811,0,0,0-3.566.9,5.932,5.932,0,0,0-2.3,2.525,8.586,8.586,0,0,0-.8,3.843,10.144,10.144,0,0,0,.646,3.771,5.257,5.257,0,0,0,2.024,2.525,6.4,6.4,0,0,0,3.566.9,12.369,12.369,0,0,0,1.859-.119q.765-.119,1.411-.264v-4.97H90.1ZM114.452,0H103.536V-19.274h10.916v2.663H106.7v5.234h7.264v2.65H106.7v6.051h7.752Zm11.191-19.274a11.938,11.938,0,0,1,4.12.606,4.732,4.732,0,0,1,2.426,1.846,5.721,5.721,0,0,1,.8,3.151,5.151,5.151,0,0,1-.527,2.426,5,5,0,0,1-1.384,1.661,7.8,7.8,0,0,1-1.833,1.055L134.714,0h-3.573l-4.654-7.726h-3.1V0h-3.164V-19.274Zm-.211,2.637h-2.043v6.3h2.188a5.027,5.027,0,0,0,3.2-.817,2.94,2.94,0,0,0,1-2.413,2.626,2.626,0,0,0-1.061-2.373A6.062,6.062,0,0,0,125.432-16.638ZM150.216-5.247a5.149,5.149,0,0,1-.837,2.953,5.28,5.28,0,0,1-2.4,1.9,9.548,9.548,0,0,1-3.724.659,16.489,16.489,0,0,1-2.017-.119A12.993,12.993,0,0,1,139.425-.2a9.394,9.394,0,0,1-1.549-.56V-3.744a20.852,20.852,0,0,0,2.624.929,10.676,10.676,0,0,0,2.953.415,5.544,5.544,0,0,0,2.037-.323,2.5,2.5,0,0,0,1.206-.923,2.492,2.492,0,0,0,.4-1.4,2.291,2.291,0,0,0-.461-1.45,4.271,4.271,0,0,0-1.391-1.088,25.316,25.316,0,0,0-2.327-1.061,15.311,15.311,0,0,1-1.813-.87,7.329,7.329,0,0,1-1.536-1.147,4.846,4.846,0,0,1-1.061-1.562,5.354,5.354,0,0,1-.389-2.129,4.871,4.871,0,0,1,.784-2.795,4.986,4.986,0,0,1,2.215-1.78,8.353,8.353,0,0,1,3.342-.62,12.377,12.377,0,0,1,2.854.316,14.63,14.63,0,0,1,2.63.9l-1,2.544a17.975,17.975,0,0,0-2.3-.778,8.989,8.989,0,0,0-2.274-.29,4.265,4.265,0,0,0-1.7.3,2.355,2.355,0,0,0-1.061.85,2.3,2.3,0,0,0-.363,1.3,2.352,2.352,0,0,0,.415,1.417,3.783,3.783,0,0,0,1.292,1.048q.877.475,2.261,1.055a16.633,16.633,0,0,1,2.709,1.384,5.259,5.259,0,0,1,1.707,1.734A4.913,4.913,0,0,1,150.216-5.247Z" transform="translate(534 719)" fill="#1066a7"/><path d="M8.134-19.274q3.731,0,5.445,1.529a5.445,5.445,0,0,1,1.714,4.285,7.244,7.244,0,0,1-.389,2.38A5.066,5.066,0,0,1,13.632-9.09,6.159,6.159,0,0,1,11.3-7.726a10.93,10.93,0,0,1-3.553.5H5.7V0H2.531V-19.274Zm-.211,2.624H5.7v6.79H7.422a8.017,8.017,0,0,0,2.531-.349,3.054,3.054,0,0,0,1.582-1.114,3.424,3.424,0,0,0,.541-2.017,3.017,3.017,0,0,0-1.009-2.492A4.959,4.959,0,0,0,7.923-16.651ZM32.694,0,30.808-5.353h-7.37L21.554,0H18.218L25.39-19.354H28.9L36.056,0Zm-2.7-8.068-1.833-5.273q-.105-.343-.3-.969t-.4-1.279q-.2-.653-.33-1.1-.132.541-.323,1.206t-.369,1.246q-.178.58-.27.9L24.322-8.068ZM51.347-5.247a5.149,5.149,0,0,1-.837,2.953,5.28,5.28,0,0,1-2.4,1.9,9.548,9.548,0,0,1-3.724.659A16.489,16.489,0,0,1,42.369.145,12.993,12.993,0,0,1,40.556-.2a9.394,9.394,0,0,1-1.549-.56V-3.744a20.852,20.852,0,0,0,2.624.929,10.676,10.676,0,0,0,2.953.415,5.544,5.544,0,0,0,2.037-.323,2.5,2.5,0,0,0,1.206-.923,2.492,2.492,0,0,0,.4-1.4,2.291,2.291,0,0,0-.461-1.45A4.271,4.271,0,0,0,46.37-7.587a25.316,25.316,0,0,0-2.327-1.061,15.311,15.311,0,0,1-1.813-.87,7.329,7.329,0,0,1-1.536-1.147,4.846,4.846,0,0,1-1.061-1.562,5.354,5.354,0,0,1-.389-2.129,4.871,4.871,0,0,1,.784-2.795,4.986,4.986,0,0,1,2.215-1.78,8.353,8.353,0,0,1,3.342-.62,12.377,12.377,0,0,1,2.854.316,14.63,14.63,0,0,1,2.63.9l-1,2.544a17.975,17.975,0,0,0-2.3-.778,8.989,8.989,0,0,0-2.274-.29,4.265,4.265,0,0,0-1.7.3,2.355,2.355,0,0,0-1.061.85,2.3,2.3,0,0,0-.363,1.3,2.352,2.352,0,0,0,.415,1.417,3.783,3.783,0,0,0,1.292,1.048q.877.475,2.261,1.055a16.633,16.633,0,0,1,2.709,1.384,5.259,5.259,0,0,1,1.707,1.734A4.913,4.913,0,0,1,51.347-5.247Zm16.465,0a5.149,5.149,0,0,1-.837,2.953,5.28,5.28,0,0,1-2.4,1.9,9.548,9.548,0,0,1-3.724.659A16.489,16.489,0,0,1,58.834.145,12.993,12.993,0,0,1,57.021-.2a9.394,9.394,0,0,1-1.549-.56V-3.744a20.852,20.852,0,0,0,2.624.929,10.676,10.676,0,0,0,2.953.415,5.544,5.544,0,0,0,2.037-.323,2.5,2.5,0,0,0,1.206-.923,2.492,2.492,0,0,0,.4-1.4,2.291,2.291,0,0,0-.461-1.45,4.271,4.271,0,0,0-1.391-1.088,25.316,25.316,0,0,0-2.327-1.061,15.311,15.311,0,0,1-1.813-.87,7.329,7.329,0,0,1-1.536-1.147A4.846,4.846,0,0,1,56.1-12.228a5.354,5.354,0,0,1-.389-2.129,4.871,4.871,0,0,1,.784-2.795,4.986,4.986,0,0,1,2.215-1.78,8.353,8.353,0,0,1,3.342-.62,12.377,12.377,0,0,1,2.854.316,14.63,14.63,0,0,1,2.63.9l-1,2.544a17.975,17.975,0,0,0-2.3-.778,8.989,8.989,0,0,0-2.274-.29,4.265,4.265,0,0,0-1.7.3,2.355,2.355,0,0,0-1.061.85,2.3,2.3,0,0,0-.363,1.3,2.352,2.352,0,0,0,.415,1.417,3.783,3.783,0,0,0,1.292,1.048q.877.475,2.261,1.055a16.633,16.633,0,0,1,2.709,1.384,5.259,5.259,0,0,1,1.707,1.734A4.913,4.913,0,0,1,67.812-5.247ZM73.149,0V-19.274h3.164V0Zm26.972-9.664a13.782,13.782,0,0,1-.56,4.054A8.686,8.686,0,0,1,97.88-2.472,7.423,7.423,0,0,1,95.072-.448a10.121,10.121,0,0,1-3.955.712,10.283,10.283,0,0,1-4-.712,7.324,7.324,0,0,1-2.808-2.03A8.723,8.723,0,0,1,82.64-5.629a14,14,0,0,1-.554-4.061,12.77,12.77,0,0,1,.982-5.2,7.508,7.508,0,0,1,2.993-3.454,9.579,9.579,0,0,1,5.082-1.233,9.376,9.376,0,0,1,5,1.226A7.583,7.583,0,0,1,99.126-14.9,12.729,12.729,0,0,1,100.121-9.664Zm-14.713,0a11.048,11.048,0,0,0,.606,3.856,5.132,5.132,0,0,0,1.865,2.5,5.541,5.541,0,0,0,3.237.877A5.535,5.535,0,0,0,94.36-3.3a5.074,5.074,0,0,0,1.846-2.5A11.272,11.272,0,0,0,96.8-9.664a9.089,9.089,0,0,0-1.351-5.306,4.9,4.9,0,0,0-4.3-1.918,5.636,5.636,0,0,0-3.25.87,5.068,5.068,0,0,0-1.879,2.485A11.023,11.023,0,0,0,85.409-9.664ZM121.965,0h-3.889l-9.439-15.385h-.119q.053.778.1,1.648t.079,1.793q.033.923.059,1.872V0h-2.874V-19.274h3.863l9.426,15.28h.092q-.026-.672-.066-1.542t-.073-1.8q-.033-.929-.046-1.8V-19.274h2.887Z" transform="translate(689 719)" fill="#333"/><g transform="translate(474 668)"><path d="M17,0A17,17,0,1,1,0,17,17,17,0,0,1,17,0Z" transform="translate(22 24)" fill="#1066a7"/><g transform="translate(33 31)"><path d="M1852.554-3729.836h6.1a5,5,0,0,1,3.1,1.193,6.931,6.931,0,0,1,1.24,1.433,5.187,5.187,0,0,1,.469,4.755,4.727,4.727,0,0,1-1.043,1.746c-.02.017-.043.054-.071.086s-.06.059-.1.1a5.84,5.84,0,0,1-.586.553,5.165,5.165,0,0,1-2.848,1.138,13.4,13.4,0,0,1-2.205,0v-3.156l1.966-.059.26-.037a2.367,2.367,0,0,0,1.718-2.635,2.5,2.5,0,0,0-2.532-1.994h-2.335l.014,12.722h-3.186Z" transform="translate(-1852.375 3729.837)" fill="#fff"/><path d="M1860.231-3470.469a5.925,5.925,0,0,1,3.245,3.629,6.448,6.448,0,0,1-.551,5.1,6.149,6.149,0,0,1-2.629,2.348,7.066,7.066,0,0,1-2.807.56l-8.809-.051V-3462h9.081a2.864,2.864,0,0,0,2.7-2.044,2.619,2.619,0,0,0-.635-2.858,3.125,3.125,0,0,0-1.921-.946c-.276-.033,0-.012.236-.137a1.19,1.19,0,0,0,.189-.13c.119-.1.245-.22.4-.371.041-.04.08-.072.136-.126.028-.027.072-.074.11-.108A6.2,6.2,0,0,0,1860.231-3470.469Z" transform="translate(-1848.68 3478.662)" fill="#fff"/></g></g></g></svg>