<svg xmlns="http://www.w3.org/2000/svg" width="30" height="30" viewBox="0 0 30 30"><path d="M15,0h0A15,15,0,0,1,30,15h0A15,15,0,0,1,15,30h0A15,15,0,0,1,0,15H0A15,15,0,0,1,15,0Z" fill="#fff"/><path d="M193.516,261.032A10.694,10.694,0,0,0,204.326,250.3c0-.162,0-.326-.012-.488a7.69,7.69,0,0,0,1.9-1.952,7.592,7.592,0,0,1-2.181.594,3.784,3.784,0,0,0,1.671-2.084,7.638,7.638,0,0,1-2.412.914,3.825,3.825,0,0,0-5.374-.165,3.757,3.757,0,0,0-1.1,3.6,10.82,10.82,0,0,1-7.83-3.939,3.756,3.756,0,0,0,1.176,5.033,3.8,3.8,0,0,1-1.724-.47v.047a3.778,3.778,0,0,0,3.049,3.7,3.843,3.843,0,0,1-1.715.065,3.8,3.8,0,0,0,3.549,2.619,7.649,7.649,0,0,1-4.717,1.617,7.137,7.137,0,0,1-.9-.056,10.764,10.764,0,0,0,5.816,1.693" transform="translate(-181.952 -238.565)" fill="#1066a7"/><path d="M15,0h0A15,15,0,0,1,30,15h0A15,15,0,0,1,15,30h0A15,15,0,0,1,0,15H0A15,15,0,0,1,15,0Z" fill="none"/></svg>