<svg xmlns="http://www.w3.org/2000/svg" width="30" height="30" viewBox="0 0 30 30"><path d="M30,15A15,15,0,1,0,12.656,29.82V19.337H8.848V15h3.809V11.7c0-3.76,2.239-5.836,5.666-5.836a23.065,23.065,0,0,1,3.358.293V9.844H19.788a2.168,2.168,0,0,0-2.444,2.343V15H21.5l-.665,4.336h-3.5V29.82A15,15,0,0,0,30,15Z" fill="#1066A7"/><path d="M162.854,113.322l.657-4.286H159.4v-2.782a2.143,2.143,0,0,1,2.416-2.316h1.87V100.29a22.8,22.8,0,0,0-3.319-.29c-3.387,0-5.6,2.053-5.6,5.769v3.267H151v4.286h3.765v10.362a14.99,14.99,0,0,0,4.634,0V113.322Z" transform="translate(-142.077 -93.864)" fill="#fff"/></svg>