<svg xmlns="http://www.w3.org/2000/svg" width="30" height="30" viewBox="0 0 30 30"><g transform="translate(-1 -1)"><circle cx="15" cy="15" r="15" transform="translate(1 1)" fill="#1066A7"/><path d="M17.688,19.885h0l0-.011a7.629,7.629,0,0,0,3.536-6.584c0-5.534-3.584-7.5-7.33-7.5A7.428,7.428,0,0,0,6.52,13.4c0,5.534,3.583,7.564,7.331,7.564a7.363,7.363,0,0,0,1.711-.2l.013,0a3.312,3.312,0,0,0,4.243,1.792s-.076-.464-.209-1.329A2.01,2.01,0,0,1,17.688,19.885ZM16.631,17.8a3.243,3.243,0,0,0-3.784-1.22s.058.429.177,1.209a1.9,1.9,0,0,1,1.833,1.183.1.1,0,0,0-.005.016h0a4.2,4.2,0,0,1-1,.115c-1.744,0-3.833-.753-3.833-5.454s2.188-6,3.932-6,3.772,1.118,3.772,5.819A7.1,7.1,0,0,1,16.648,17.8Z" transform="translate(1.874 1.626)" fill="#fff"/></g></svg>