<svg xmlns="http://www.w3.org/2000/svg" width="30" height="30" viewBox="0 0 30 30"><path d="M15,30h0A15,15,0,0,1,0,15H0A15,15,0,0,1,15,0h0A15,15,0,0,1,30,15h0A15,15,0,0,1,15,30Z" fill="#fff"/><path d="M187.5,268.195a2.5,2.5,0,0,0-1.76-1.774c-1.553-.42-7.779-.42-7.779-.42s-6.228,0-7.779.42a2.5,2.5,0,0,0-1.76,1.774,28.106,28.106,0,0,0,0,9.662,2.5,2.5,0,0,0,1.76,1.774c1.553.42,7.779.42,7.779.42s6.228,0,7.779-.42a2.5,2.5,0,0,0,1.76-1.774,28.305,28.305,0,0,0,0-9.662Zm-11.578,7.795v-5.927l5.2,2.964Z" transform="translate(-162.956 -258.026)" fill="#1066a7"/></svg>